<?xml version="1.0" encoding="iso-8859-1"?>
<!-- Generator: Adobe Illustrator 19.0.0, SVG Export Plug-In . SVG Version: 6.00 Build 0)  -->
<svg version="1.1" id="Layer_1" xmlns="http://www.w3.org/2000/svg" xmlns:xlink="http://www.w3.org/1999/xlink" x="0px" y="0px"
	 viewBox="0 0 512 512" style="enable-background:new 0 0 512 512;" xml:space="preserve">
<g>
	<g>
		<path d="M448,0H277.333v426.667h-42.667V0H64C52.203,0,42.667,9.557,42.667,21.333V448v42.667C42.667,502.443,52.203,512,64,512
			c11.797,0,21.333-9.557,21.333-21.333v-21.333h149.333v21.333c0,11.776,9.536,21.333,21.333,21.333
			c11.797,0,21.333-9.557,21.333-21.333v-21.333h149.333v21.333c0,11.776,9.536,21.333,21.333,21.333
			c11.797,0,21.333-9.557,21.333-21.333V448V21.333C469.333,9.557,459.797,0,448,0z M170.667,192h-21.333
			C137.536,192,128,182.443,128,170.667s9.536-21.333,21.333-21.333h21.333c11.797,0,21.333,9.557,21.333,21.333
			S182.464,192,170.667,192z M170.667,128h-21.333C137.536,128,128,118.443,128,106.667s9.536-21.333,21.333-21.333h21.333
			c11.797,0,21.333,9.557,21.333,21.333S182.464,128,170.667,128z M362.667,192h-21.333C329.536,192,320,182.443,320,170.667
			s9.536-21.333,21.333-21.333h21.333c11.797,0,21.333,9.557,21.333,21.333S374.464,192,362.667,192z M362.667,128h-21.333
			C329.536,128,320,118.443,320,106.667s9.536-21.333,21.333-21.333h21.333c11.797,0,21.333,9.557,21.333,21.333
			S374.464,128,362.667,128z"/>
	</g>
</g>
<g>
</g>
<g>
</g>
<g>
</g>
<g>
</g>
<g>
</g>
<g>
</g>
<g>
</g>
<g>
</g>
<g>
</g>
<g>
</g>
<g>
</g>
<g>
</g>
<g>
</g>
<g>
</g>
<g>
</g>
</svg>
