<?xml version="1.0" encoding="iso-8859-1"?>
<!-- Generator: Adobe Illustrator 18.0.0, SVG Export Plug-In . SVG Version: 6.00 Build 0)  -->
<!DOCTYPE svg PUBLIC "-//W3C//DTD SVG 1.1//EN" "http://www.w3.org/Graphics/SVG/1.1/DTD/svg11.dtd">
<svg version="1.1" id="Capa_1" xmlns="http://www.w3.org/2000/svg" xmlns:xlink="http://www.w3.org/1999/xlink" x="0px" y="0px"
	 viewBox="0 0 462.421 462.421" style="enable-background:new 0 0 462.421 462.421;" xml:space="preserve">
<g id="XMLID_304_">
	<circle id="XMLID_308_" cx="231.187" cy="84.266" r="32.975"/>
	<path id="XMLID_305_" d="M379.637,6.074h-54.659c-2.359-3.25-6.02-5.535-10.328-5.99c-5.414-0.575-10.44,1.88-13.425,5.99H161.197
		c-2.984-4.112-8.012-6.568-13.425-5.99c-4.308,0.456-7.969,2.74-10.328,5.99H82.784c-8.284,0-15,6.716-15,15v441.347h30V36.074
		h39.029l5.769,54.55c0.285,2.695,1.311,5.26,2.963,7.408l43.331,56.33l0.007,265.471c0,10.544,8.548,19.092,19.092,19.092
		c10.544,0,19.092-8.548,19.092-19.092V267.224h8.244v152.608c0,10.544,8.548,19.092,19.092,19.092
		c10.544,0,19.092-8.548,19.092-19.092l-0.346-264.958l43.725-56.842c1.653-2.148,2.678-4.713,2.963-7.408l5.769-54.55h39.029
		v426.347h30V21.074C394.637,12.79,387.921,6.074,379.637,6.074z M291.072,83.413l-36.346,47.249h-47.031l-36.346-47.249
		l-5.006-47.339h129.735L291.072,83.413z"/>
</g>
<g>
</g>
<g>
</g>
<g>
</g>
<g>
</g>
<g>
</g>
<g>
</g>
<g>
</g>
<g>
</g>
<g>
</g>
<g>
</g>
<g>
</g>
<g>
</g>
<g>
</g>
<g>
</g>
<g>
</g>
</svg>
