<?xml version="1.0" encoding="iso-8859-1"?>
<!-- Generator: Adobe Illustrator 18.0.0, SVG Export Plug-In . SVG Version: 6.00 Build 0)  -->
<!DOCTYPE svg PUBLIC "-//W3C//DTD SVG 1.1//EN" "http://www.w3.org/Graphics/SVG/1.1/DTD/svg11.dtd">
<svg version="1.1" id="Capa_1" xmlns="http://www.w3.org/2000/svg" xmlns:xlink="http://www.w3.org/1999/xlink" x="0px" y="0px"
	 viewBox="0 0 453.137 453.137" style="enable-background:new 0 0 453.137 453.137;" xml:space="preserve">
<g>
	<path d="M12.673,77.069h24.309v25c0,13.51,10.99,24.5,24.5,24.5h22.281c13.51,0,24.5-10.99,24.5-24.5v-25h31.351v25
		c0,13.51,10.99,24.5,24.5,24.5h22.28c13.51,0,24.5-10.99,24.5-24.5v-25h31.351v25c0,13.51,10.99,24.5,24.5,24.5h22.28
		c13.51,0,24.5-10.99,24.5-24.5v-25h31.351v25c0,13.51,10.99,24.5,24.5,24.5h22.281c13.51,0,24.5-10.99,24.5-24.5v-25h24.309
		c6.903,0,12.5-5.597,12.5-12.5c0-6.903-5.597-12.5-12.5-12.5h-24.309v-25c0-13.51-10.99-24.5-24.5-24.5h-22.281
		c-13.51,0-24.5,10.99-24.5,24.5v25h-31.351v-25c0-13.51-10.99-24.5-24.5-24.5h-22.28c-13.51,0-24.5,10.99-24.5,24.5v25h-31.351v-25
		c0-13.51-10.99-24.5-24.5-24.5h-22.28c-13.51,0-24.5,10.99-24.5,24.5v25h-31.351v-25c0-13.51-10.99-24.5-24.5-24.5H61.482
		c-13.51,0-24.5,10.99-24.5,24.5v25H12.673c-6.903,0-12.5,5.597-12.5,12.5C0.173,71.472,5.77,77.069,12.673,77.069z M164.614,27.569
		h21.28v74h-21.28V27.569z M61.982,27.569h21.281v74H61.982V27.569z"/>
	<path d="M86.055,210.881c5.24-5.24,12.207-8.126,19.617-8.126c7.411,0,14.378,2.886,19.618,8.126
		c22.515,22.515,59.148,22.513,81.661,0c5.24-5.24,12.207-8.126,19.617-8.126c7.411,0,14.378,2.886,19.618,8.126
		c22.515,22.515,59.148,22.513,81.661,0c5.24-5.24,12.207-8.126,19.618-8.126c7.41,0,14.377,2.886,19.617,8.126
		c10.905,10.906,25.406,16.913,40.83,16.913c15.424,0,29.924-6.007,40.83-16.913c5.858-5.857,5.858-15.355,0-21.213
		c-5.857-5.857-15.355-5.857-21.213,0c-5.24,5.24-12.207,8.126-19.617,8.126c-7.41,0-14.377-2.886-19.617-8.126
		c-10.906-10.906-25.407-16.913-40.83-16.913c-15.424,0-29.925,6.007-40.831,16.913c-10.818,10.816-28.417,10.817-39.235,0
		c-10.906-10.906-25.407-16.913-40.831-16.913c-15.423,0-29.924,6.007-40.83,16.913c-10.818,10.816-28.417,10.816-39.235,0
		c-22.513-22.513-59.147-22.515-81.661,0c-5.24,5.24-12.207,8.126-19.618,8.126c-7.41,0-14.377-2.886-19.617-8.126
		c-5.857-5.857-15.356-5.857-21.213,0c-5.858,5.857-5.858,15.355,0,21.213C26.909,233.396,63.542,233.394,86.055,210.881z"/>
	<path d="M427.53,253.668c-5.24,5.24-12.207,8.126-19.617,8.126c-7.41,0-14.377-2.886-19.617-8.126
		c-10.906-10.906-25.407-16.913-40.83-16.913c-15.424,0-29.925,6.007-40.831,16.913c-10.818,10.816-28.417,10.817-39.235,0
		c-10.906-10.906-25.407-16.913-40.831-16.913c-15.423,0-29.924,6.007-40.83,16.913c-10.818,10.817-28.417,10.817-39.235,0
		c-22.513-22.513-59.147-22.515-81.661,0c-5.24,5.24-12.207,8.126-19.618,8.126c-7.41,0-14.377-2.886-19.617-8.126
		c-5.857-5.857-15.356-5.857-21.213,0c-5.858,5.857-5.858,15.356,0,21.213c22.515,22.514,59.149,22.514,81.661,0
		c5.24-5.24,12.207-8.126,19.617-8.126c7.411,0,14.378,2.886,19.618,8.126c22.515,22.514,59.148,22.514,81.661,0
		c5.24-5.24,12.207-8.126,19.617-8.126c7.411,0,14.378,2.886,19.618,8.126c22.515,22.514,59.148,22.514,81.661,0
		c5.24-5.24,12.207-8.126,19.618-8.126c7.41,0,14.377,2.886,19.617,8.126c10.905,10.906,25.406,16.913,40.83,16.913
		c15.424,0,29.924-6.007,40.83-16.913c5.858-5.857,5.858-15.355,0-21.213C442.886,247.811,433.388,247.811,427.53,253.668z"/>
	<path d="M440.465,376.069h-24.309v-25c0-13.51-10.99-24.5-24.5-24.5h-22.281c-13.51,0-24.5,10.99-24.5,24.5v25h-31.351v-25
		c0-13.51-10.99-24.5-24.5-24.5h-22.28c-13.51,0-24.5,10.99-24.5,24.5v25h-31.351v-25c0-13.51-10.99-24.5-24.5-24.5h-22.28
		c-13.51,0-24.5,10.99-24.5,24.5v25h-31.351v-25c0-13.51-10.99-24.5-24.5-24.5H61.482c-13.51,0-24.5,10.99-24.5,24.5v25H12.673
		c-6.903,0-12.5,5.597-12.5,12.5c0,6.903,5.597,12.5,12.5,12.5h24.309v25c0,13.51,10.99,24.5,24.5,24.5h22.281
		c13.51,0,24.5-10.99,24.5-24.5v-25h31.351v25c0,13.51,10.99,24.5,24.5,24.5h22.28c13.51,0,24.5-10.99,24.5-24.5v-25h31.351v25
		c0,13.51,10.99,24.5,24.5,24.5h22.28c13.51,0,24.5-10.99,24.5-24.5v-25h31.351v25c0,13.51,10.99,24.5,24.5,24.5h22.281
		c13.51,0,24.5-10.99,24.5-24.5v-25h24.309c6.903,0,12.5-5.597,12.5-12.5C452.965,381.665,447.368,376.069,440.465,376.069z
		 M288.525,425.569h-21.28v-74h21.28V425.569z M391.156,425.569h-21.281v-74h21.281V425.569z"/>
</g>
<g>
</g>
<g>
</g>
<g>
</g>
<g>
</g>
<g>
</g>
<g>
</g>
<g>
</g>
<g>
</g>
<g>
</g>
<g>
</g>
<g>
</g>
<g>
</g>
<g>
</g>
<g>
</g>
<g>
</g>
</svg>
