<?xml version="1.0" encoding="iso-8859-1"?>
<!-- Generator: Adobe Illustrator 18.0.0, SVG Export Plug-In . SVG Version: 6.00 Build 0)  -->
<!DOCTYPE svg PUBLIC "-//W3C//DTD SVG 1.1//EN" "http://www.w3.org/Graphics/SVG/1.1/DTD/svg11.dtd">
<svg version="1.1" id="Capa_1" xmlns="http://www.w3.org/2000/svg" xmlns:xlink="http://www.w3.org/1999/xlink" x="0px" y="0px"
	 viewBox="0 0 460.45 460.45" style="enable-background:new 0 0 460.45 460.45;" xml:space="preserve">
<g>
	<circle cx="288.188" cy="144.447" r="37.529"/>
	<path d="M434.217,415.406c-5.368,5.368-12.506,8.325-20.097,8.325c-7.592,0-14.729-2.957-20.097-8.325
		c-11.173-11.173-26.029-17.327-41.83-17.327c-15.8,0-30.656,6.154-41.829,17.327c-11.082,11.08-29.112,11.082-40.196,0
		c-11.173-11.173-26.029-17.327-41.83-17.327c-15.801,0-30.657,6.154-41.83,17.327c-5.368,5.368-12.506,8.325-20.098,8.325
		c-7.592,0-14.729-2.956-20.097-8.324c-6.001-6.001-15.731-6.001-21.732,0c-6.001,6.001-6.001,15.731,0,21.733
		c23.065,23.065,60.594,23.066,83.66,0c5.368-5.368,12.506-8.325,20.098-8.325s14.729,2.957,20.098,8.325
		c23.065,23.065,60.595,23.066,83.66,0c5.368-5.368,12.506-8.325,20.097-8.325c7.592,0,14.73,2.957,20.098,8.325
		c11.172,11.173,26.028,17.327,41.829,17.327c15.801,0,30.656-6.154,41.829-17.327c6.002-6.001,6.002-15.731,0-21.732
		C449.948,409.405,440.217,409.405,434.217,415.406z"/>
	<path d="M270.167,350.865c-11.173-11.173-26.029-17.327-41.83-17.327c-15.801,0-30.657,6.154-41.83,17.327
		c-5.368,5.368-12.506,8.325-20.098,8.325c-7.592,0-14.729-2.956-20.097-8.324c-6.001-6.001-15.731-6.001-21.732-0.001
		c-6.001,6.001-6.001,15.731,0,21.733c23.065,23.065,60.594,23.066,83.66,0c5.368-5.368,12.506-8.325,20.098-8.325
		s14.729,2.957,20.098,8.325c23.065,23.065,60.595,23.067,83.66,0c5.368-5.368,12.506-8.325,20.097-8.325
		c7.592,0,14.73,2.957,20.098,8.325c11.172,11.173,26.028,17.327,41.829,17.327c15.801,0,30.656-6.154,41.829-17.327
		c6.002-6.001,6.002-15.731,0-21.732c-6.001-6.002-15.731-6.002-21.732,0c-5.368,5.368-12.506,8.325-20.097,8.325
		c-7.592,0-14.729-2.957-20.097-8.325c-11.173-11.173-26.029-17.327-41.83-17.327c-15.8,0-30.656,6.154-41.829,17.327
		C299.28,361.945,281.251,361.947,270.167,350.865z"/>
	<path d="M78.049,333.149H30.734v-41.576h99.374c8.487,0,15.367-6.88,15.367-15.367s-6.88-15.367-15.367-15.367H103.53
		c2.463-2.814,4.193-6.326,4.807-10.295l3.513-22.712c2.239,1.021,4.641,1.531,7.038,1.531c4.779,0,9.532-2.004,12.894-5.911
		c7.736-8.987,101.157-117.522,104.099-120.939L219.05,133.28c10.19,1.083,20.445-4.116,25.327-13.81
		c8.18-16.246,9.206-35.17,2.83-52.204c-6.376-17.035-19.575-30.634-36.413-37.516L160.803,9.317
		c-12.455-5.091-26.538-4.318-38.361,2.106c-11.317,6.149-19.404,16.857-22.275,29.356C98.23,45.295,68.01,244.307,68.01,244.307
		c-0.958,6.19,0.982,12.155,4.8,16.533H15.367C6.88,260.839,0,267.72,0,276.207c0,8.822,0,161.466,0,170.252
		c0,4.422,3.585,8.007,8.007,8.007h70.042c4.422,0,8.007-3.585,8.007-8.007V341.156C86.056,336.734,82.471,333.149,78.049,333.149z
		 M170.962,110.888l34.084-24.677c-2.905,3.375-82.678,96.053-86.905,100.964l14.765-95.45L170.962,110.888z"/>
</g>
<g>
</g>
<g>
</g>
<g>
</g>
<g>
</g>
<g>
</g>
<g>
</g>
<g>
</g>
<g>
</g>
<g>
</g>
<g>
</g>
<g>
</g>
<g>
</g>
<g>
</g>
<g>
</g>
<g>
</g>
</svg>
